<?xml version="1.0" encoding="utf-8"?>
<!-- Generator: Adobe Illustrator 21.1.0, SVG Export Plug-In . SVG Version: 6.00 Build 0)  -->
<svg version="1.1" id="Layer_1" xmlns="http://www.w3.org/2000/svg" xmlns:xlink="http://www.w3.org/1999/xlink" x="0px" y="0px"
	 viewBox="0 0 383.3 58.9" style="enable-background:new 0 0 383.3 58.9;" xml:space="preserve">
<style type="text/css">
	.st0{fill:#FF5A60;}
	.st1{fill:#39ADBC;}
	.st2{fill:#515169;}
	.st3{fill:#41B7A0;}
	.st4{fill:#4D4D4D;}
</style>
<polygon class="st0" points="87.6,14 73.6,0 30.2,0 16.4,14 "/>
<polygon class="st1" points="71.4,14 43.9,40.9 16.4,14 0.3,14 43.9,57.9 87.8,14 "/>
<polygon class="st2" points="71.4,14 43.9,40.9 16.4,14 "/>
<polygon class="st3" points="52.4,49.4 16.4,14 0,14 43.9,58 "/>
<g>
	<path class="st4" d="M121.5,43.4h0.1l9.8-29.7h9.2l-17.1,45.2h-5l-16.8-45.2h9.2L121.5,43.4z"/>
	<path class="st4" d="M142.7,13.7h8.6v24.6c0,5.4,0.5,13.1,7.8,13.1c7.3,0,7.8-7.6,7.8-13.1V13.7h8.6V40c0,10.7-4.6,18.9-16.3,18.9
		s-16.3-8.1-16.3-18.9V13.7z"/>
	<path class="st4" d="M190.1,21.2v9.7h13.7v7.5h-13.7v11.9h14.2v7.5h-22.8v-44h22.8v7.5H190.1z"/>
	<path class="st4" d="M273,57.7h-10.4L251.9,40h-0.1v17.7h-8.6v-44h11.6c8.7,0,14.7,3.9,14.7,13.3c0,5.6-3.1,11.2-9,12.2L273,57.7z
		 M251.8,34h1.1c4.7,0,8.1-1.4,8.1-6.8c0-5.4-3.4-6.5-8-6.5h-1.2V34z"/>
	<path class="st4" d="M285.9,48.5l-3.6,9.3h-9l17.2-45.2h6.7l16.7,45.2h-9.2l-3.4-9.3H285.9z M293.3,25.5h-0.1l-4.8,16h10.5
		L293.3,25.5z"/>
	<path class="st4" d="M326.2,57.7h-8.6v-44h8.6V57.7z"/>
	<path class="st4" d="M341,50.3h12.1v7.5h-20.7v-44h8.6V50.3z"/>
	<path class="st4" d="M377.8,23.4c-1.6-2.2-3.7-3.6-6.6-3.6c-2.7,0-5.4,2.1-5.4,5c0,7.4,17.5,4.3,17.5,19.1
		c0,8.8-5.5,15.1-14.5,15.1c-6.1,0-10.5-3.5-13.5-8.6l5.5-5.4c1.2,3.4,4.3,6.4,7.9,6.4c3.5,0,5.7-3,5.7-6.4c0-4.6-4.2-5.8-7.6-7.2
		c-5.7-2.3-9.8-5.2-9.8-12c0-7.3,5.4-13.2,12.8-13.2c3.9,0,9.3,1.9,12,4.9L377.8,23.4z"/>
</g>
<polygon class="st4" points="234.7,27.3 233.7,26.2 225.2,34.7 216.9,26.4 215.8,27.5 224.1,35.8 215.6,44.2 216.7,45.3 225.2,36.8 
	233.7,45.3 234.7,44.2 226.2,35.8 "/>
</svg>
